<svg width="360" height="84" viewBox="0 0 360 84" fill="none" xmlns="http://www.w3.org/2000/svg">
<rect width="360" height="84" fill="#109CF1"/>
<path d="M1 83L67.1431 17.5065L162.066 57.4416L214.576 30.2857L258.504 72.8831L361 1" stroke="#D9D9D9" stroke-width="0.62"/>
<circle cx="68.0264" cy="18.0264" r="2.02643" fill="#FFB946"/>
<circle cx="162.026" cy="57.0264" r="2.02643" fill="#FFB946"/>
<circle cx="215.026" cy="31.0264" r="2.02643" fill="#FFB946"/>
<circle cx="259.026" cy="72.0264" r="2.02643" fill="#FFB946"/>
<circle cx="304" cy="40" r="23.1" fill="#109CF1" stroke="#FFB946" stroke-width="1.8"/>
<path d="M295.56 33.3238C295.728 31.1158 296.58 29.3878 298.116 28.1398C299.652 26.8918 301.644 26.2678 304.092 26.2678C305.724 26.2678 307.128 26.5678 308.304 27.1678C309.504 27.7438 310.404 28.5358 311.004 29.5438C311.628 30.5518 311.94 31.6918 311.94 32.9638C311.94 34.4518 311.508 35.7358 310.644 36.8158C309.804 37.8958 308.7 38.5918 307.332 38.9038V39.0838C308.892 39.4678 310.128 40.2238 311.04 41.3518C311.952 42.4798 312.408 43.9558 312.408 45.7798C312.408 47.1478 312.096 48.3838 311.472 49.4878C310.848 50.5678 309.912 51.4198 308.664 52.0438C307.416 52.6678 305.916 52.9798 304.164 52.9798C301.62 52.9798 299.532 52.3198 297.9 50.9998C296.268 49.6558 295.356 47.7598 295.164 45.3118H298.332C298.5 46.7518 299.088 47.9278 300.096 48.8398C301.104 49.7518 302.448 50.2078 304.128 50.2078C305.808 50.2078 307.08 49.7758 307.944 48.9118C308.832 48.0238 309.276 46.8838 309.276 45.4918C309.276 43.6918 308.676 42.3958 307.476 41.6038C306.276 40.8118 304.464 40.4158 302.04 40.4158H301.212V37.6798H302.076C304.284 37.6558 305.952 37.2958 307.08 36.5998C308.208 35.8798 308.772 34.7758 308.772 33.2878C308.772 32.0158 308.352 30.9958 307.512 30.2278C306.696 29.4598 305.52 29.0758 303.984 29.0758C302.496 29.0758 301.296 29.4598 300.384 30.2278C299.472 30.9958 298.932 32.0278 298.764 33.3238H295.56Z" fill="#D9D9D9"/>
</svg>
