<svg width="360" height="84" viewBox="0 0 360 84" fill="none" xmlns="http://www.w3.org/2000/svg">
<rect width="360" height="84" fill="#109CF1"/>
<path d="M361 83L294.857 17.5065L199.934 57.4416L147.424 30.2857L103.496 72.8831L0.999983 1" stroke="#D9D9D9" stroke-width="0.62"/>
<circle cx="2.02643" cy="2.02643" r="2.02643" transform="matrix(-1 0 0 1 296 16)" fill="#FFB946"/>
<circle cx="2.02643" cy="2.02643" r="2.02643" transform="matrix(-1 0 0 1 202 55)" fill="#FFB946"/>
<circle cx="2.02643" cy="2.02643" r="2.02643" transform="matrix(-1 0 0 1 149 29)" fill="#FFB946"/>
<circle cx="2.02643" cy="2.02643" r="2.02643" transform="matrix(-1 0 0 1 105 70)" fill="#FFB946"/>
<circle cx="56" cy="40" r="23.1" fill="#109CF1" stroke="#FFB946" stroke-width="1.8"/>
<path d="M46.6197 47.0038V44.5198L59.2557 27.0238H63.1797V44.1598H66.7797V47.0038H63.1797V52.7998H59.9397V47.0038H46.6197ZM60.0837 30.4438L50.3997 44.1598H60.0837V30.4438Z" fill="#D9D9D9"/>
</svg>
