<svg width="360" height="84" viewBox="0 0 360 84" fill="none" xmlns="http://www.w3.org/2000/svg">
<rect width="360" height="84" fill="#109CF1"/>
<path d="M361 83L294.857 17.5065L199.934 57.4416L147.424 30.2857L103.496 72.8831L0.999983 1" stroke="#D9D9D9" stroke-width="0.62"/>
<circle cx="2.02643" cy="2.02643" r="2.02643" transform="matrix(-1 0 0 1 296 16)" fill="#FFB946"/>
<circle cx="2.02643" cy="2.02643" r="2.02643" transform="matrix(-1 0 0 1 202 55)" fill="#FFB946"/>
<circle cx="2.02643" cy="2.02643" r="2.02643" transform="matrix(-1 0 0 1 149 29)" fill="#FFB946"/>
<circle cx="2.02643" cy="2.02643" r="2.02643" transform="matrix(-1 0 0 1 105 70)" fill="#FFB946"/>
<circle cx="56" cy="40" r="23.1" fill="#109CF1" stroke="#FFB946" stroke-width="1.8"/>
<path d="M47.9825 50.1718C51.0305 47.7238 53.4185 45.7198 55.1465 44.1598C56.8745 42.5758 58.3265 40.9318 59.5025 39.2278C60.7025 37.4998 61.3025 35.8078 61.3025 34.1518C61.3025 32.5918 60.9185 31.3678 60.1505 30.4798C59.4065 29.5678 58.1945 29.1118 56.5145 29.1118C54.8825 29.1118 53.6105 29.6278 52.6985 30.6598C51.8105 31.6678 51.3305 33.0238 51.2585 34.7278H48.0905C48.1865 32.0398 49.0025 29.9638 50.5385 28.4998C52.0745 27.0358 54.0545 26.3038 56.4785 26.3038C58.9505 26.3038 60.9065 26.9878 62.3465 28.3558C63.8105 29.7238 64.5425 31.6078 64.5425 34.0078C64.5425 35.9998 63.9425 37.9438 62.7425 39.8398C61.5665 41.7118 60.2225 43.3678 58.7105 44.8078C57.1985 46.2238 55.2665 47.8798 52.9145 49.7758H65.2985V52.5118H47.9825V50.1718Z" fill="#D9D9D9"/>
</svg>
