<svg width="360" height="84" viewBox="0 0 360 84" fill="none" xmlns="http://www.w3.org/2000/svg">
<rect width="360" height="84" fill="#109CF1"/>
<path d="M1 83L67.1431 17.5065L162.066 57.4416L214.576 30.2857L258.504 72.8831L361 1" stroke="#D9D9D9" stroke-width="0.62"/>
<circle cx="68.0264" cy="18.0264" r="2.02643" fill="#FFB946"/>
<circle cx="162.026" cy="57.0264" r="2.02643" fill="#FFB946"/>
<circle cx="215.026" cy="31.0264" r="2.02643" fill="#FFB946"/>
<circle cx="259.026" cy="72.0264" r="2.02643" fill="#FFB946"/>
<circle cx="304" cy="40" r="23.1" fill="#109CF1" stroke="#FFB946" stroke-width="1.8"/>
<path d="M312.025 29.6158H299.389V37.8238C299.941 37.0558 300.757 36.4318 301.837 35.9518C302.917 35.4478 304.081 35.1958 305.329 35.1958C307.321 35.1958 308.941 35.6158 310.189 36.4558C311.437 37.2718 312.325 38.3398 312.853 39.6598C313.405 40.9558 313.681 42.3358 313.681 43.7998C313.681 45.5278 313.357 47.0758 312.709 48.4438C312.061 49.8118 311.065 50.8918 309.721 51.6838C308.401 52.4758 306.757 52.8718 304.789 52.8718C302.269 52.8718 300.229 52.2238 298.669 50.9278C297.109 49.6318 296.161 47.9038 295.825 45.7438H299.029C299.341 47.1118 300.001 48.1798 301.009 48.9478C302.017 49.7158 303.289 50.0998 304.825 50.0998C306.721 50.0998 308.149 49.5358 309.109 48.4078C310.069 47.2558 310.549 45.7438 310.549 43.8718C310.549 41.9998 310.069 40.5598 309.109 39.5518C308.149 38.5198 306.733 38.0038 304.861 38.0038C303.589 38.0038 302.473 38.3158 301.513 38.9398C300.577 39.5398 299.893 40.3678 299.461 41.4238H296.365V26.7358H312.025V29.6158Z" fill="#D9D9D9"/>
</svg>
